<svg xmlns="http://www.w3.org/2000/svg" width="24" height="24" viewBox="0 0 24 24" fill="none" stroke="#4f665f" stroke-width="1.8" stroke-linecap="round" stroke-linejoin="round"><path d="M4 22c4-1.2 12-1.2 16 0" stroke="#d8c9b3" opacity=".75"/><circle cx="12" cy="12" r="3"/><path d="M19 12a7 7 0 0 0-.1-1l2-1.5-2-3.5-2.4 1a8 8 0 0 0-1.7-1L14.5 3h-5l-.4 3a8 8 0 0 0-1.7 1L5 6 3 9.5 5.1 11a7 7 0 0 0 0 2L3 14.5 5 18l2.4-1a8 8 0 0 0 1.7 1l.4 3h5l.4-3a8 8 0 0 0 1.7-1l2.4 1 2-3.5-2-1.5a7 7 0 0 0 .1-1Z"/></svg>
